<?xml version="1.0" encoding="UTF-8" standalone="no"?>
<svg
   xmlns:dc="http://purl.org/dc/elements/1.1/"
   xmlns:cc="http://creativecommons.org/ns#"
   xmlns:rdf="http://www.w3.org/1999/02/22-rdf-syntax-ns#"
   xmlns:svg="http://www.w3.org/2000/svg"
   xmlns="http://www.w3.org/2000/svg"
   xmlns:sodipodi="http://sodipodi.sourceforge.net/DTD/sodipodi-0.dtd"
   xmlns:inkscape="http://www.inkscape.org/namespaces/inkscape"
   inkscape:version="1.0.2 (e86c870879, 2021-01-15)"
   sodipodi:docname="icon.svg"
   id="svg56"
   viewBox="0 0 24 24"
   height="24"
   width="24"
   version="1.1"
   inkscape:export-filename="/home/luna/files/repository/task.json-web/resources/android/icon-foreground.png"
   inkscape:export-xdpi="1728"
   inkscape:export-ydpi="1728">
  <metadata
     id="metadata62">
    <rdf:RDF>
      <cc:Work
         rdf:about="">
        <dc:format>image/svg+xml</dc:format>
        <dc:type
           rdf:resource="http://purl.org/dc/dcmitype/StillImage" />
      </cc:Work>
    </rdf:RDF>
  </metadata>
  <defs
     id="defs60" />
  <sodipodi:namedview
     inkscape:current-layer="svg56"
     inkscape:window-maximized="1"
     inkscape:window-y="38"
     inkscape:window-x="0"
     inkscape:cy="11.232847"
     inkscape:cx="5.7501503"
     inkscape:zoom="21.979236"
     showgrid="false"
     id="namedview58"
     inkscape:window-height="1002"
     inkscape:window-width="1914"
     inkscape:pageshadow="2"
     inkscape:pageopacity="0"
     guidetolerance="10"
     gridtolerance="10"
     objecttolerance="10"
     borderopacity="1"
     bordercolor="#666666"
     pagecolor="#ffffff"
     inkscape:document-rotation="0" />
  <path
     style="fill:#2196f3;fill-opacity:1;stroke-width:0.6"
     id="path54"
     d="M 15.9,6 H 8.1 C 6.96,6 6,6.96 6,8.1 v 7.8 C 6,17.04 6.96,18 8.1,18 h 6.3 L 18,14.4 V 8.1 C 18,6.96 17.04,6 15.9,6 m 0.9,7.8 h -0.9 c -1.14,0 -2.1,0.96 -2.1,2.1 v 0.9 H 8.28 C 7.68,16.8 7.2,16.32 7.2,15.72 V 8.28 C 7.2,7.68 7.68,7.2 8.28,7.2 h 7.5 c 0.6,0 1.08,0.48 1.08,1.08 v 5.52 m -2.94,-4.08 0.9,0.9 -3.6,3.6 -2.1,-2.1 0.9,-0.9 1.2,1.2 z" />
</svg>
