<?xml version="1.0" encoding="UTF-8" standalone="no"?>
<svg
   xmlns:dc="http://purl.org/dc/elements/1.1/"
   xmlns:cc="http://creativecommons.org/ns#"
   xmlns:rdf="http://www.w3.org/1999/02/22-rdf-syntax-ns#"
   xmlns:svg="http://www.w3.org/2000/svg"
   xmlns="http://www.w3.org/2000/svg"
   xmlns:sodipodi="http://sodipodi.sourceforge.net/DTD/sodipodi-0.dtd"
   xmlns:inkscape="http://www.inkscape.org/namespaces/inkscape"
   inkscape:version="1.0.2 (e86c870879, 2021-01-15)"
   sodipodi:docname="splash.svg"
   id="svg56"
   viewBox="0 0 80 80"
   height="80"
   width="80"
   version="1.1"
   inkscape:export-filename="/home/luna/files/repository/task.json-web/resources/splash.png"
   inkscape:export-xdpi="3278.3999"
   inkscape:export-ydpi="3278.3999">
  <metadata
     id="metadata62">
    <rdf:RDF>
      <cc:Work
         rdf:about="">
        <dc:format>image/svg+xml</dc:format>
        <dc:type
           rdf:resource="http://purl.org/dc/dcmitype/StillImage" />
        <dc:title></dc:title>
      </cc:Work>
    </rdf:RDF>
  </metadata>
  <defs
     id="defs60">
    <filter
       inkscape:collect="always"
       style="color-interpolation-filters:sRGB"
       id="filter834"
       x="-4.8000002e-06"
       width="1.0000097"
       y="-4.8000002e-06"
       height="1.0000097">
      <feGaussianBlur
         inkscape:collect="always"
         stdDeviation="4.0000001e-05"
         id="feGaussianBlur836" />
    </filter>
  </defs>
  <sodipodi:namedview
     inkscape:current-layer="svg56"
     inkscape:window-maximized="1"
     inkscape:window-y="38"
     inkscape:window-x="0"
     inkscape:cy="37.827927"
     inkscape:cx="6.0136567"
     inkscape:zoom="7.7708334"
     showgrid="false"
     id="namedview58"
     inkscape:window-height="1002"
     inkscape:window-width="1914"
     inkscape:pageshadow="2"
     inkscape:pageopacity="1"
     guidetolerance="10"
     gridtolerance="10"
     objecttolerance="10"
     borderopacity="1"
     bordercolor="#666666"
     pagecolor="#ffffff"
     inkscape:document-rotation="0"
     units="mm"
     width="48mm" />
  <path
     style="fill:#2196f3;fill-opacity:1;filter:url(#filter834)"
     id="path54"
     d="m 46.499999,24.000096 h -13 c -1.9,0 -3.5,1.6 -3.5,3.5 v 12.999999 c 0,1.9 1.6,3.5 3.5,3.5 h 10.5 l 6,-6 V 27.500096 c 0,-1.9 -1.6,-3.5 -3.5,-3.5 m 1.5,12.999999 h -1.5 c -1.9,0 -3.5,1.6 -3.5,3.5 v 1.5 h -9.2 c -1,0 -1.8,-0.8 -1.8,-1.8 V 27.800096 c 0,-1 0.8,-1.8 1.8,-1.8 h 12.5 c 1,0 1.8,0.8 1.8,1.8 v 9.199999 m -4.9,-6.799999 1.5,1.499999 -6,6 -3.5,-3.5 1.5,-1.5 2,2 z" />
  <text
     xml:space="preserve"
     style="font-style:normal;font-weight:normal;font-size:4.66667px;line-height:1.25;font-family:sans-serif;fill:#1e88e5;fill-opacity:1;stroke:none;stroke-opacity:1"
     x="27.510735"
     y="53.545574"
     id="text834"><tspan
       sodipodi:role="line"
       id="tspan832"
       x="27.510735"
       y="53.545574"
       style="font-style:normal;font-variant:normal;font-weight:normal;font-stretch:normal;font-size:4.66667px;font-family:'DejaVu Sans Mono';-inkscape-font-specification:'DejaVu Sans Mono';fill:#1e88e5;fill-opacity:1;stroke:none;stroke-opacity:1">Task.json</tspan></text>
</svg>
